<svg xmlns="http://www.w3.org/2000/svg" width="32" height="32" viewBox="0 0 32 32"><g transform="translate(-0.084 -0.292)"><g transform="translate(0 0)"><g transform="translate(7.77 10.232)"><g transform="translate(0 0)"><path d="M19.347,35.016Zm8.028-11.075a2.1,2.1,0,0,1-1.8,1.635,55.978,55.978,0,0,1-6.231.231,55.966,55.966,0,0,1-6.23-.231,2.1,2.1,0,0,1-1.8-1.635,17.853,17.853,0,0,1-.289-3.933,17.854,17.854,0,0,1,.293-3.933,2.1,2.1,0,0,1,1.8-1.635,55.966,55.966,0,0,1,6.23-.231,55.972,55.972,0,0,1,6.231.231,2.1,2.1,0,0,1,1.8,1.635,17.811,17.811,0,0,1,.288,3.933A17.812,17.812,0,0,1,27.375,23.941Zm-9.525-7,4.6,2.658-4.6,2.658Z" transform="translate(-11.028 -14.211)" fill="#d52c2d" fill-rule="evenodd"/></g></g><g transform="translate(0 0)"><g transform="translate(0.084 0.292)" fill="none" stroke="#d52c2d" stroke-width="1.2"><circle cx="16" cy="16" r="16" stroke="none"/><circle cx="16" cy="16" r="15.4" fill="none"/></g></g></g></g></svg>