<svg xmlns="http://www.w3.org/2000/svg" width="32" height="32" viewBox="0 0 32 32"><g transform="translate(105.02 85.499)"><g transform="translate(-105.02 -85.499)"><path d="M-89.02-53.5a16.018,16.018,0,0,1-16-16,16.018,16.018,0,0,1,16-16,16.018,16.018,0,0,1,16,16A16.018,16.018,0,0,1-89.02-53.5Zm0-30.933A14.95,14.95,0,0,0-103.953-69.5,14.95,14.95,0,0,0-89.02-54.566,14.95,14.95,0,0,0-74.087-69.5,14.95,14.95,0,0,0-89.02-84.432Z" transform="translate(105.02 85.499)" fill="#dd2a7b"/></g><g transform="translate(-95.996 -76.902)"><path d="M-82.779-61.08h-9.429a2.652,2.652,0,0,1-2.66-2.645v-9.442a2.653,2.653,0,0,1,2.645-2.66h9.444a2.652,2.652,0,0,1,2.66,2.645v9.444a2.652,2.652,0,0,1-2.647,2.658ZM-87.49-70.8a2.37,2.37,0,0,0-2.37,2.37,2.37,2.37,0,0,0,2.37,2.37,2.37,2.37,0,0,0,2.37-2.37A2.377,2.377,0,0,0-87.49-70.8Zm5.609-3.266h-2.374v2.37h2.37Zm.29,4.134h-2.032a3.946,3.946,0,0,1,.267,1.475,4.134,4.134,0,0,1-4.219,4.048,4.135,4.135,0,0,1-4.048-4.048,3.982,3.982,0,0,1,.267-1.475h-2.036v5.32a2.045,2.045,0,0,0,2.035,2.054h7.683a2.044,2.044,0,0,0,2.052-2.036v-5.337Z" transform="translate(94.868 75.827)" fill="#dd2a7b"/></g></g></svg>