<svg xmlns="http://www.w3.org/2000/svg" width="32" height="32" viewBox="0 0 32 32"><g transform="translate(0.203 -0.292)"><g transform="translate(8.668 7.738)"><g transform="translate(0 0)"><path d="M12.057,16.052V25.97H15.27V16.052ZM13.875,11.2a1.716,1.716,0,1,0-.042,3.428h.02a1.716,1.716,0,1,0,.021-3.428Zm9.49,4.856a3.179,3.179,0,0,0-2.9,1.638v-1.4H17.256c.042.93,0,9.918,0,9.918h3.213V20.664a2.308,2.308,0,0,1,.106-.8,1.763,1.763,0,0,1,1.648-1.205c1.163,0,1.628.91,1.628,2.243V26.2h3.213V20.516C27.065,17.47,25.479,16.052,23.365,16.052Z" transform="translate(-12.057 -11.196)" fill="#0075b7" fill-rule="evenodd"/></g></g><g transform="translate(0 0)"><g transform="translate(-0.203 0.292)" fill="none" stroke="#0075b7" stroke-width="1.2"><circle cx="16" cy="16" r="16" stroke="none"/><circle cx="16" cy="16" r="15.4" fill="none"/></g></g></g></svg>