<svg xmlns="http://www.w3.org/2000/svg" viewBox="233 773.93 1493.99 467.06">
  <defs>
    <style>
      .cls-1 {
        fill: #199dd2;
      }
    </style>
  </defs>
  <g id="D">
    <g id="Dot">
      <g>
        <path class="cls-1" d="m672.57,994.46c-5.64-124.63-132.35-186.92-142.74-191.83-39.45-18.62-82.9-24.55-90.01-25.58-20.86-3.04-38.6-3.71-114.34-2.66-16.12.22-31.07.47-44.64.72-23.45.43-42.18,19.67-42,43.12l2.02,255.41c19.91-17.54,46.04-28.18,74.65-28.18,62.42,0,113.02,50.6,113.02,113.02,0,29.28-11.14,55.97-29.41,76.04,13.39-.75,24.56-1.78,35.83-3.37,21.39-3.02,95.64-10.76,155.09-61.83,15.82-13.59,86.89-78.55,82.53-174.87Z"/>
        <path d="m315.51,1075.97c-20.89,0-39.97,7.77-54.5,20.57-13.37,11.78-22.9,27.81-26.46,45.99-1.01,5.16-1.55,10.49-1.55,15.95,0,5.91.63,11.68,1.81,17.24,7.93,37.29,41.05,65.27,80.7,65.27,24.19,0,45.95-10.41,61.04-26.99,13.34-14.66,21.47-34.14,21.47-55.52,0-45.57-36.94-82.51-82.51-82.51Z"/>
      </g>
    </g>
  </g>
  <g id="scris_doco" data-name="scris doco">
    <g>
      <path d="m897.05,1233.43c-19.73,0-35.49-4.12-47.29-12.37-11.81-8.25-20.3-19.96-25.47-35.17-5.18-15.2-7.76-32.98-7.76-53.36,0-21.66,2.67-40.26,8-55.78s13.9-27.41,25.71-35.65c11.8-8.25,27.41-12.37,46.81-12.37,12.61,0,23.04,1.94,31.29,5.82,8.25,3.88,14.79,8.41,19.65,13.58,4.85,5.18,8.32,9.78,10.43,13.82,2.1,4.05,3.15,6.23,3.15,6.55h.97v-113.02h60.15v273.1h-50.93l-9.22-31.53h-.97c0,.65-1.14,2.83-3.4,6.55-2.27,3.72-5.99,7.84-11.16,12.37-5.18,4.53-11.81,8.57-19.89,12.13-8.09,3.55-18.11,5.34-30.07,5.34Zm20.86-48.51c11.96,0,21.18-2.43,27.65-7.28,6.46-4.85,10.91-11.23,13.34-19.16,2.43-7.92,3.64-16.73,3.64-26.44s-1.21-18.11-3.64-26.19c-2.43-8.08-6.79-14.39-13.1-18.92-6.31-4.52-15.45-6.79-27.41-6.79s-21.75,2.43-28.38,7.28c-6.63,4.85-11,11.24-13.1,19.16-2.11,7.93-3.15,16.42-3.15,25.47s1.05,17.55,3.15,25.47c2.1,7.93,6.38,14.48,12.85,19.65,6.47,5.18,15.84,7.76,28.13,7.76Z"/>
      <path d="m1160.44,1233.43c-22.97,0-42.13-4.45-57.48-13.34-15.36-8.89-26.85-21.02-34.44-36.38-7.6-15.36-11.4-32.9-11.4-52.63s3.8-37.75,11.4-53.12c7.59-15.36,19.08-27.48,34.44-36.38,15.36-8.89,34.52-13.34,57.48-13.34,33.63,0,59.18,9.46,76.64,28.38s26.19,43.9,26.19,74.94c0,19.08-3.72,36.3-11.16,51.66-7.44,15.36-18.76,27.57-33.96,36.62-15.2,9.05-34.44,13.58-57.72,13.58Zm0-48.99c13.26,0,23.2-2.74,29.83-8.25,6.62-5.49,11.07-12.53,13.34-21.1,2.26-8.56,3.4-17.22,3.4-25.95s-1.14-17.86-3.4-26.44c-2.27-8.56-6.72-15.68-13.34-21.34-6.63-5.65-16.58-8.49-29.83-8.49s-23.28,2.83-30.07,8.49c-6.79,5.66-11.32,12.78-13.58,21.34-2.27,8.57-3.4,17.39-3.4,26.44s1.13,17.39,3.4,25.95c2.26,8.57,6.79,15.61,13.58,21.1,6.79,5.5,16.81,8.25,30.07,8.25Z"/>
      <path d="m1395.21,1233.43c-18.76,0-35.98-3.8-51.66-11.4-15.69-7.59-28.22-18.92-37.59-33.96-9.38-15.04-14.07-33.71-14.07-56.03.64-21.66,5.58-40.26,14.79-55.78,9.22-15.52,21.59-27.48,37.11-35.9,15.52-8.41,32.82-12.61,51.9-12.61,21.34,0,39.29,4.12,53.84,12.37,14.55,8.25,25.63,18.6,33.23,31.04,7.59,12.45,11.72,25.31,12.37,38.56h-53.36c-1.94-10.35-6.63-18.27-14.07-23.77-7.44-5.49-17.46-8.25-30.07-8.25-10.67,0-19.57,2.11-26.68,6.31-7.12,4.21-12.54,10.03-16.25,17.46-3.72,7.44-5.58,16.17-5.58,26.19,0,16.82,4.04,30.24,12.13,40.26,8.08,10.03,20.53,15.04,37.35,15.04,10.35,0,19.65-2.74,27.89-8.25,8.25-5.49,13.34-14.23,15.28-26.19h53.36c-.65,13.91-4.78,27.41-12.37,40.5-7.6,13.1-18.76,23.77-33.47,32.01-14.72,8.25-32.74,12.37-54.09,12.37Z"/>
      <path d="m1624.16,1233.43c-22.97,0-42.13-4.45-57.48-13.34-15.36-8.89-26.85-21.02-34.44-36.38-7.6-15.36-11.4-32.9-11.4-52.63s3.8-37.75,11.4-53.12c7.59-15.36,19.08-27.48,34.44-36.38,15.36-8.89,34.52-13.34,57.48-13.34,33.63,0,59.18,9.46,76.64,28.38,17.46,18.92,26.19,43.9,26.19,74.94,0,19.08-3.72,36.3-11.16,51.66-7.44,15.36-18.76,27.57-33.96,36.62-15.2,9.05-34.44,13.58-57.72,13.58Zm0-48.99c13.26,0,23.2-2.74,29.83-8.25,6.62-5.49,11.07-12.53,13.34-21.1,2.26-8.56,3.4-17.22,3.4-25.95s-1.14-17.86-3.4-26.44c-2.27-8.56-6.72-15.68-13.34-21.34-6.63-5.65-16.58-8.49-29.83-8.49s-23.28,2.83-30.07,8.49c-6.79,5.66-11.32,12.78-13.58,21.34-2.27,8.57-3.4,17.39-3.4,26.44s1.13,17.39,3.4,25.95c2.26,8.57,6.79,15.61,13.58,21.1,6.79,5.5,16.81,8.25,30.07,8.25Z"/>
    </g>
  </g>
</svg>