<svg id="visual" viewBox="0 0 900 600" width="900" height="600" xmlns="http://www.w3.org/2000/svg" xmlns:xlink="http://www.w3.org/1999/xlink" version="1.1"><rect x="0" y="0" width="900" height="600" fill="#f8f8f8"></rect><defs><linearGradient id="grad1_0" x1="33.3%" y1="0%" x2="100%" y2="100%"><stop offset="20%" stop-color="#f93a47" stop-opacity="1"></stop><stop offset="80%" stop-color="#f93a47" stop-opacity="1"></stop></linearGradient></defs><defs><linearGradient id="grad1_1" x1="33.3%" y1="0%" x2="100%" y2="100%"><stop offset="20%" stop-color="#f93a47" stop-opacity="1"></stop><stop offset="80%" stop-color="#ff7570" stop-opacity="1"></stop></linearGradient></defs><defs><linearGradient id="grad1_2" x1="33.3%" y1="0%" x2="100%" y2="100%"><stop offset="20%" stop-color="#ffa39b" stop-opacity="1"></stop><stop offset="80%" stop-color="#ff7570" stop-opacity="1"></stop></linearGradient></defs><defs><linearGradient id="grad1_3" x1="33.3%" y1="0%" x2="100%" y2="100%"><stop offset="20%" stop-color="#ffa39b" stop-opacity="1"></stop><stop offset="80%" stop-color="#ffcec9" stop-opacity="1"></stop></linearGradient></defs><defs><linearGradient id="grad1_4" x1="33.3%" y1="0%" x2="100%" y2="100%"><stop offset="20%" stop-color="#f8f8f8" stop-opacity="1"></stop><stop offset="80%" stop-color="#ffcec9" stop-opacity="1"></stop></linearGradient></defs><defs><linearGradient id="grad2_0" x1="0%" y1="0%" x2="66.7%" y2="100%"><stop offset="20%" stop-color="#f93a47" stop-opacity="1"></stop><stop offset="80%" stop-color="#f93a47" stop-opacity="1"></stop></linearGradient></defs><defs><linearGradient id="grad2_1" x1="0%" y1="0%" x2="66.7%" y2="100%"><stop offset="20%" stop-color="#ff7570" stop-opacity="1"></stop><stop offset="80%" stop-color="#f93a47" stop-opacity="1"></stop></linearGradient></defs><defs><linearGradient id="grad2_2" x1="0%" y1="0%" x2="66.7%" y2="100%"><stop offset="20%" stop-color="#ff7570" stop-opacity="1"></stop><stop offset="80%" stop-color="#ffa39b" stop-opacity="1"></stop></linearGradient></defs><defs><linearGradient id="grad2_3" x1="0%" y1="0%" x2="66.7%" y2="100%"><stop offset="20%" stop-color="#ffcec9" stop-opacity="1"></stop><stop offset="80%" stop-color="#ffa39b" stop-opacity="1"></stop></linearGradient></defs><defs><linearGradient id="grad2_4" x1="0%" y1="0%" x2="66.7%" y2="100%"><stop offset="20%" stop-color="#ffcec9" stop-opacity="1"></stop><stop offset="80%" stop-color="#f8f8f8" stop-opacity="1"></stop></linearGradient></defs><g transform="translate(900, 0)"><path d="M0 432.7C-34.4 422.1 -68.8 411.5 -109 406.7C-149.1 401.9 -195.1 402.9 -216.3 374.7C-237.6 346.5 -234.2 289.2 -261.6 261.6C-289 234 -347.2 236.1 -368.9 213C-390.7 189.9 -376 141.7 -380.6 102C-385.1 62.3 -408.9 31.1 -432.7 0L0 0Z" fill="#fee3e0"></path><path d="M0 346.1C-27.5 337.6 -55 329.2 -87.2 325.3C-119.3 321.5 -156 322.3 -173.1 299.8C-190.1 277.2 -187.4 231.4 -209.3 209.3C-231.2 187.2 -277.7 188.9 -295.1 170.4C-312.5 151.9 -300.8 113.3 -304.5 81.6C-308.1 49.8 -327.1 24.9 -346.1 0L0 0Z" fill="#ffb9b2"></path><path d="M0 259.6C-20.6 253.2 -41.3 246.9 -65.4 244C-89.5 241.1 -117 241.7 -129.8 224.8C-142.6 207.9 -140.5 173.5 -157 157C-173.4 140.4 -208.3 141.7 -221.4 127.8C-234.4 113.9 -225.6 85 -228.3 61.2C-231.1 37.4 -245.3 18.7 -259.6 0L0 0Z" fill="#ff8c85"></path><path d="M0 173.1C-13.8 168.8 -27.5 164.6 -43.6 162.7C-59.7 160.7 -78 161.1 -86.5 149.9C-95 138.6 -93.7 115.7 -104.7 104.7C-115.6 93.6 -138.9 94.4 -147.6 85.2C-156.3 76 -150.4 56.7 -152.2 40.8C-154.1 24.9 -163.6 12.5 -173.1 0L0 0Z" fill="#fe5a5b"></path><path d="M0 86.5C-6.9 84.4 -13.8 82.3 -21.8 81.3C-29.8 80.4 -39 80.6 -43.3 74.9C-47.5 69.3 -46.8 57.8 -52.3 52.3C-57.8 46.8 -69.4 47.2 -73.8 42.6C-78.1 38 -75.2 28.3 -76.1 20.4C-77 12.5 -81.8 6.2 -86.5 0L0 0Z" fill="#f93a47"></path></g><g transform="translate(0, 600)"><path d="M0 -432.7C29.7 -392.7 59.4 -352.8 90.1 -336.1C120.7 -319.5 152.4 -326.2 188 -325.6C223.6 -325.1 263.3 -317.3 299.1 -299.1C334.9 -280.9 366.9 -252.3 374.7 -216.3C382.5 -180.3 366.2 -136.9 371.9 -99.6C377.5 -62.4 405.1 -31.2 432.7 0L0 0Z" fill="#fee3e0"></path><path d="M0 -346.1C23.8 -314.2 47.5 -282.2 72.1 -268.9C96.6 -255.6 121.9 -260.9 150.4 -260.5C178.9 -260.1 210.6 -253.8 239.3 -239.3C267.9 -224.7 293.5 -201.9 299.8 -173.1C306 -144.3 293 -109.5 297.5 -79.7C302 -49.9 324.1 -24.9 346.1 0L0 0Z" fill="#ffb9b2"></path><path d="M0 -259.6C17.8 -235.6 35.6 -211.7 54 -201.7C72.4 -191.7 91.4 -195.7 112.8 -195.4C134.2 -195 158 -190.4 179.5 -179.5C200.9 -168.6 220.1 -151.4 224.8 -129.8C229.5 -108.2 219.7 -82.2 223.1 -59.8C226.5 -37.4 243.1 -18.7 259.6 0L0 0Z" fill="#ff8c85"></path><path d="M0 -173.1C11.9 -157.1 23.8 -141.1 36 -134.5C48.3 -127.8 60.9 -130.5 75.2 -130.3C89.5 -130 105.3 -126.9 119.6 -119.6C134 -112.4 146.7 -100.9 149.9 -86.5C153 -72.1 146.5 -54.8 148.8 -39.9C151 -24.9 162 -12.5 173.1 0L0 0Z" fill="#fe5a5b"></path><path d="M0 -86.5C5.9 -78.5 11.9 -70.6 18 -67.2C24.1 -63.9 30.5 -65.2 37.6 -65.1C44.7 -65 52.7 -63.5 59.8 -59.8C67 -56.2 73.4 -50.5 74.9 -43.3C76.5 -36.1 73.2 -27.4 74.4 -19.9C75.5 -12.5 81 -6.2 86.5 0L0 0Z" fill="#f93a47"></path></g></svg>