<svg xmlns="http://www.w3.org/2000/svg" version="1.1" xmlns:xlink="http://www.w3.org/1999/xlink" width="1000" height="1000"><g clip-path="url(#SvgjsClipPath1008)"><rect width="1000" height="1000" fill="#ffffff"></rect><g transform="matrix(0.7494566439331485,0,0,0.7494566439331485,170.47140822903395,150)"><svg xmlns="http://www.w3.org/2000/svg" version="1.1" xmlns:xlink="http://www.w3.org/1999/xlink" width="879.38" height="934.01"><svg xmlns="http://www.w3.org/2000/svg" id="D" viewBox="573 464 879.38 934.01">
  <defs>
    <style>
      .cls-1 {
        fill: #199dd2;
      }
    </style>
  <clipPath id="SvgjsClipPath1008"><rect width="1000" height="1000" x="0" y="0" rx="350" ry="350"></rect></clipPath></defs>
  <g id="Dot">
    <g>
      <path class="cls-1" d="m1452,905c-11.28-249.21-264.66-373.79-285.43-383.59-78.88-37.23-165.77-49.09-180-51.16-41.71-6.08-77.18-7.41-228.65-5.33-32.23.44-62.13.94-89.27,1.44-46.9.87-84.35,39.33-83.98,86.24l4.05,510.75c39.81-35.06,92.06-56.34,149.28-56.34,124.82,0,226,101.18,226,226,0,58.56-22.27,111.92-58.81,152.06,26.77-1.5,49.11-3.56,71.65-6.74,42.77-6.04,191.26-21.52,310.13-123.64,31.63-27.17,173.74-157.08,165.03-349.69Z"></path>
      <path d="m738,1068c-41.78,0-79.92,15.54-108.99,41.14-26.74,23.55-45.8,55.62-52.92,91.97-2.02,10.32-3.09,20.98-3.09,31.9,0,11.82,1.25,23.35,3.62,34.47,15.85,74.58,82.08,130.53,161.38,130.53,48.37,0,91.88-20.82,122.06-53.98,26.67-29.31,42.94-68.27,42.94-111.02,0-91.13-73.87-165-165-165Z"></path>
    </g>
  </g>
</svg></svg></g></g></svg>